<svg xmlns="http://www.w3.org/2000/svg">
    <symbol id="logo">
        <svg width="64px" height="64px" viewBox="0 0 24 24" fill="none" xmlns="http://www.w3.org/2000/svg">
            <g id="SVGRepo_bgCarrier" stroke-width="0"></g>
            <g id="SVGRepo_tracerCarrier" stroke-linecap="round" stroke-linejoin="round"></g>
            <g id="SVGRepo_iconCarrier">
                <path
                    d="M8 15.0001C8 15.0001 9.6 17.0001 12 17.0001C14.4 17.0001 16 15.0001 16 15.0001M3 14.6001V12.1302C3 10.9815 3 10.4071 3.14805 9.87819C3.2792 9.40966 3.49473 8.96898 3.78405 8.5778C4.11067 8.1362 4.56404 7.78358 5.47078 7.07834L8.07078 5.05612C9.47608 3.96311 10.1787 3.4166 10.9546 3.20653C11.6392 3.02116 12.3608 3.02116 13.0454 3.20653C13.8213 3.4166 14.5239 3.96311 15.9292 5.05612L18.5292 7.07834C19.436 7.78358 19.8893 8.1362 20.2159 8.5778C20.5053 8.96898 20.7208 9.40966 20.8519 9.87819C21 10.4071 21 10.9815 21 12.1302V14.6001C21 16.8403 21 17.9604 20.564 18.816C20.1805 19.5687 19.5686 20.1806 18.816 20.5641C17.9603 21.0001 16.8402 21.0001 14.6 21.0001H9.4C7.15979 21.0001 6.03969 21.0001 5.18404 20.5641C4.43139 20.1806 3.81947 19.5687 3.43597 18.816C3 17.9604 3 16.8403 3 14.6001Z"
                    stroke="#7166f0" stroke-width="2" stroke-linecap="round" stroke-linejoin="round"></path>
            </g>
        </svg>

    </symbol>

    <symbol id="quality">
        <svg width="64px" height="64px" viewBox="0 0 20 20" xmlns="http://www.w3.org/2000/svg" fill="#000000">
            <g id="SVGRepo_bgCarrier" stroke-width="0"></g>
            <g id="SVGRepo_tracerCarrier" stroke-linecap="round" stroke-linejoin="round"></g>
            <g id="SVGRepo_iconCarrier">
                <g id="quality-5" transform="translate(-2 -2)">
                    <circle id="secondary" fill="#7166f0" cx="7" cy="7" r="7" transform="translate(5 3)"></circle>
                    <path id="primary" d="M10,10l1.33,1.5L14,8.5" fill="none" stroke="#000000" stroke-linecap="round"
                        stroke-linejoin="round" stroke-width="2"></path>
                    <path id="primary-2" data-name="primary" d="M5.79,13.57,3,17.56l3.03.9L7.91,21l2.88-4.11"
                        fill="none" stroke="#000000" stroke-linecap="round" stroke-linejoin="round" stroke-width="2">
                    </path>
                    <path id="primary-3" data-name="primary" d="M18.21,13.57,21,17.56l-3.03.9L16.09,21l-2.88-4.11"
                        fill="none" stroke="#000000" stroke-linecap="round" stroke-linejoin="round" stroke-width="2">
                    </path>
                    <circle id="primary-4" data-name="primary" cx="7" cy="7" r="7" transform="translate(5 3)"
                        fill="none" stroke="#000000" stroke-linecap="round" stroke-linejoin="round" stroke-width="2">
                    </circle>
                </g>
            </g>
        </svg>
    </symbol>

    <symbol id="user">
        <svg width="64px" height="64px" viewBox="-1 0 20 20" xmlns="http://www.w3.org/2000/svg" fill="#000000">
            <g id="SVGRepo_bgCarrier" stroke-width="0"></g>
            <g id="SVGRepo_tracerCarrier" stroke-linecap="round" stroke-linejoin="round"></g>
            <g id="SVGRepo_iconCarrier">
                <g id="user-6" transform="translate(-3 -2)">
                    <path id="secondary" fill="#7166f0"
                        d="M11,13h2a7,7,0,0,1,7,7h0a1,1,0,0,1-1,1H5a1,1,0,0,1-1-1H4a7,7,0,0,1,7-7Z"></path>
                    <path id="primary"
                        d="M20,20h0a1,1,0,0,1-1,1H5a1,1,0,0,1-1-1H4a7,7,0,0,1,7-7h2A7,7,0,0,1,20,20ZM12,3a5,5,0,1,0,5,5A5,5,0,0,0,12,3Z"
                        fill="none" stroke="#000000" stroke-linecap="round" stroke-linejoin="round" stroke-width="2">
                    </path>
                </g>
            </g>
        </svg>
    </symbol>

    <symbol id="present">
        <svg fill="#000000" width="64px" height="64px" viewBox="0 0 24 24" id="present-line" data-name="Flat Line"
            xmlns="http://www.w3.org/2000/svg" class="icon flat-line">
            <g id="SVGRepo_bgCarrier" stroke-width="0"></g>
            <g id="SVGRepo_tracerCarrier" stroke-linecap="round" stroke-linejoin="round"></g>
            <g id="SVGRepo_iconCarrier">
                <path id="secondary" d="M4,4H20a0,0,0,0,1,0,0V16a1,1,0,0,1-1,1H5a1,1,0,0,1-1-1V4A0,0,0,0,1,4,4Z"
                    style="fill: #7166f0; stroke-width: 2;"></path>
                <path id="primary"
                    d="M12,13V8m4,5V10M8,13V10m11,7H5a1,1,0,0,1-1-1V4H20V16A1,1,0,0,1,19,17ZM3,4H21M10.4,17,8,20m5.6-3L16,20"
                    style="fill: none; stroke: #000000; stroke-linecap: round; stroke-linejoin: round; stroke-width: 2;">
                </path>
            </g>
        </svg>
    </symbol>

    <symbol id="map">
        <svg fill="#000000" width="64px" height="64px" viewBox="0 0 24 24" id="maps-location-place-right"
            data-name="Flat Line" xmlns="http://www.w3.org/2000/svg" class="icon flat-line">
            <g id="SVGRepo_bgCarrier" stroke-width="0"></g>
            <g id="SVGRepo_tracerCarrier" stroke-linecap="round" stroke-linejoin="round"></g>
            <g id="SVGRepo_iconCarrier">
                <path id="secondary" d="M19,6.5a3.5,3.5,0,0,0-7,0C12,10,15.5,13,15.5,13S19,10,19,6.5Z"
                    style="fill: #7166f0; stroke-width: 2;"></path>
                <path id="primary" d="M19,9h1a1,1,0,0,1,1,1V20a1,1,0,0,1-1,1H4a1,1,0,0,1-1-1V10A1,1,0,0,1,4,9h8"
                    style="fill: none; stroke: #000000; stroke-linecap: round; stroke-linejoin: round; stroke-width: 2;">
                </path>
                <path id="primary-2" data-name="primary"
                    d="M8,17l3-8m10,8H3m12,4V17M19,6.5a3.5,3.5,0,0,0-7,0C12,10,15.5,13,15.5,13S19,10,19,6.5Z"
                    style="fill: none; stroke: #000000; stroke-linecap: round; stroke-linejoin: round; stroke-width: 2;">
                </path>
            </g>
        </svg>
    </symbol>

    <symbol id="registry">
        <svg fill="#000000" width="64px" height="64px" viewBox="0 0 24 24" id="file-11" data-name="Flat Line"
            xmlns="http://www.w3.org/2000/svg" class="icon flat-line">
            <g id="SVGRepo_bgCarrier" stroke-width="0"></g>
            <g id="SVGRepo_tracerCarrier" stroke-linecap="round" stroke-linejoin="round"></g>
            <g id="SVGRepo_iconCarrier">
                <path id="secondary" d="M18,3H11l1,5L5,9V20a1,1,0,0,0,1,1H18a1,1,0,0,0,1-1V4A1,1,0,0,0,18,3Z"
                    style="fill: #7166f0; stroke-width: 2;"></path>
                <path id="primary"
                    d="M5,20V9l6-6h7a1,1,0,0,1,1,1V20a1,1,0,0,1-1,1H6A1,1,0,0,1,5,20ZM5,9l6-6,1,5Zm4,8h6M9,13h6"
                    style="fill: none; stroke: #000000; stroke-linecap: round; stroke-linejoin: round; stroke-width: 2;">
                </path>
            </g>
        </svg>
    </symbol>

    <symbol id="project">
        <svg fill="#000000" width="64px" height="64px" viewBox="0 0 24 24" id="roadmap-3" data-name="Flat Line"
            xmlns="http://www.w3.org/2000/svg" class="icon flat-line">
            <g id="SVGRepo_bgCarrier" stroke-width="0"></g>
            <g id="SVGRepo_tracerCarrier" stroke-linecap="round" stroke-linejoin="round"></g>
            <g id="SVGRepo_iconCarrier">
                <path id="secondary" d="M15,7V3H9V7Zm6,14V17H17v4ZM3,21H7V17H3Zm9-4.17L14.83,14,12,11.17,9.17,14Z"
                    style="fill: #7166f0; stroke-width: 2;"></path>
                <polyline id="primary" points="15 14 19 14 19 17"
                    style="fill: none; stroke: #000000; stroke-linecap: round; stroke-linejoin: round; stroke-width: 2;">
                </polyline>
                <polyline id="primary-2" data-name="primary" points="5 17 5 14 9 14"
                    style="fill: none; stroke: #000000; stroke-linecap: round; stroke-linejoin: round; stroke-width: 2;">
                </polyline>
                <path id="primary-3" data-name="primary"
                    d="M12,7v4M9,7V3h6V7Zm8,14V17h4v4ZM3,17H7v4H3Zm6.17-3L12,11.17,14.83,14,12,16.83Z"
                    style="fill: none; stroke: #000000; stroke-linecap: round; stroke-linejoin: round; stroke-width: 2;">
                </path>
            </g>
        </svg>
    </symbol>

    <symbol id="gas">
        <svg fill="#7166f0" width="64px" height="64px" viewBox="0 0 50 50" xmlns="http://www.w3.org/2000/svg"
            xmlns:xlink="http://www.w3.org/1999/xlink">
            <g id="SVGRepo_bgCarrier" stroke-width="0"></g>
            <g id="SVGRepo_tracerCarrier" stroke-linecap="round" stroke-linejoin="round"></g>
            <g id="SVGRepo_iconCarrier">
                <path
                    d="M25 4.53125L24.28125 5.3125C24.28125 5.3125 23.207031 6.425781 22.15625 8.0625C21.105469 9.699219 20 11.867188 20 14.1875C20 15.5625 20.515625 16.933594 21.375 18.03125C21.40625 18.070313 21.4375 18.117188 21.46875 18.15625C20.445313 18.265625 19.453125 18.425781 18.5 18.625C18.59375 18.332031 18.671875 18.019531 18.71875 17.71875C18.9375 16.347656 18.714844 14.921875 18.09375 13.71875C16.042969 9.738281 13.71875 7.6875 13.71875 7.6875L13 7.125L12.34375 7.75C12.34375 7.75 8.855469 11.089844 9.4375 15.96875C9.625 17.53125 10.277344 18.769531 10.90625 19.5625C11.183594 19.914063 11.652344 20.421875 12.28125 20.84375C11.679688 21.171875 11.113281 21.523438 10.59375 21.90625C10.5625 21.636719 10.503906 21.355469 10.4375 21.09375C10.082031 19.722656 9.292969 18.433594 8.0625 17.6875C4.6875 15.640625 2.84375 14.375 2.84375 14.375L1.96875 13.78125L1.4375 14.6875C1.4375 14.6875 -1.40625 19.15625 1.21875 23.4375C2.042969 24.777344 3.160156 25.636719 4.0625 26.09375C4.585938 26.359375 5.488281 26.6875 6.5625 26.71875C6.742188 26.722656 6.9375 26.707031 7.125 26.6875C7.027344 27.117188 6.96875 27.546875 6.96875 28C6.96875 29.734375 7.738281 31.296875 9 32.65625L9 37C9 39.9375 10.96875 42.476563 13.875 44.21875C16.78125 45.960938 20.695313 47 25 47C29.304688 47 33.21875 45.960938 36.125 44.21875C39.03125 42.476563 41 39.9375 41 37L41 32.65625C42.261719 31.296875 43.03125 29.734375 43.03125 28C43.03125 27.546875 42.972656 27.117188 42.875 26.6875C43.0625 26.707031 43.257813 26.722656 43.4375 26.71875C44.511719 26.6875 45.414063 26.359375 45.9375 26.09375C46.839844 25.636719 47.960938 24.777344 48.78125 23.4375C51.40625 19.15625 48.5625 14.6875 48.5625 14.6875L48.03125 13.78125L47.15625 14.375C47.15625 14.375 45.3125 15.640625 41.9375 17.6875C40.707031 18.433594 39.917969 19.722656 39.5625 21.09375C39.496094 21.355469 39.4375 21.636719 39.40625 21.90625C38.886719 21.523438 38.320313 21.171875 37.71875 20.84375C38.347656 20.421875 38.816406 19.914063 39.09375 19.5625C39.722656 18.769531 40.375 17.53125 40.5625 15.96875C41.144531 11.089844 37.65625 7.75 37.65625 7.75L37 7.125L36.28125 7.6875C36.28125 7.6875 33.957031 9.738281 31.90625 13.71875C31.285156 14.921875 31.0625 16.347656 31.28125 17.71875C31.328125 18.019531 31.40625 18.332031 31.5 18.625C30.546875 18.425781 29.554688 18.265625 28.53125 18.15625C28.5625 18.117188 28.59375 18.070313 28.625 18.03125C29.484375 16.933594 30 15.5625 30 14.1875C30 11.867188 28.894531 9.699219 27.84375 8.0625C26.792969 6.425781 25.71875 5.3125 25.71875 5.3125 Z M 25 7.625C25.359375 8.046875 25.570313 8.246094 26.15625 9.15625C27.105469 10.628906 28 12.539063 28 14.1875C28 15.023438 27.621094 16.0625 27.03125 16.8125C26.859375 17.035156 26.664063 17.210938 26.46875 17.375C26.476563 17.3125 26.5 17.25 26.5 17.1875C26.5 15.6875 25 14.09375 25 14.09375C25 14.09375 23.5 15.6875 23.5 17.1875C23.5 17.25 23.523438 17.3125 23.53125 17.375C23.335938 17.210938 23.140625 17.035156 22.96875 16.8125C22.378906 16.0625 22 15.023438 22 14.1875C22 12.539063 22.894531 10.628906 23.84375 9.15625C24.429688 8.246094 24.640625 8.046875 25 7.625 Z M 13.15625 10C13.871094 10.738281 15.011719 12.042969 16.34375 14.625C16.734375 15.382813 16.898438 16.464844 16.75 17.40625C16.707031 17.675781 16.652344 17.921875 16.5625 18.15625C16.53125 18.097656 16.507813 18.050781 16.46875 18C15.371094 16.65625 13.90625 14.84375 13.90625 14.84375C13.90625 14.84375 12.894531 17.328125 13.8125 19.40625C13.804688 19.402344 13.789063 19.410156 13.78125 19.40625C13.203125 19.117188 12.664063 18.589844 12.46875 18.34375C12.066406 17.835938 11.570313 16.867188 11.4375 15.75C11.082031 12.765625 12.429688 10.875 13.15625 10 Z M 36.84375 10C37.570313 10.875 38.917969 12.765625 38.5625 15.75C38.429688 16.867188 37.933594 17.835938 37.53125 18.34375C37.335938 18.589844 36.796875 19.117188 36.21875 19.40625C36.210938 19.410156 36.195313 19.402344 36.1875 19.40625C37.105469 17.328125 36.09375 14.84375 36.09375 14.84375C36.09375 14.84375 34.628906 16.65625 33.53125 18C33.492188 18.050781 33.46875 18.097656 33.4375 18.15625C33.347656 17.921875 33.292969 17.675781 33.25 17.40625C33.101563 16.464844 33.265625 15.382813 33.65625 14.625C34.988281 12.042969 36.128906 10.738281 36.84375 10 Z M 2.75 16.6875C3.332031 17.078125 4.28125 17.738281 7.03125 19.40625C7.6875 19.804688 8.257813 20.664063 8.5 21.59375C8.574219 21.882813 8.613281 22.164063 8.625 22.4375C8.570313 22.398438 8.527344 22.34375 8.46875 22.3125C6.910156 21.550781 4.8125 20.53125 4.8125 20.53125C4.8125 20.53125 4.933594 23.214844 6.625 24.71875C6.613281 24.71875 6.605469 24.71875 6.59375 24.71875C5.945313 24.699219 5.246094 24.453125 4.96875 24.3125C4.390625 24.019531 3.527344 23.335938 2.9375 22.375C1.410156 19.886719 2.246094 17.734375 2.75 16.6875 Z M 47.25 16.6875C47.753906 17.734375 48.589844 19.886719 47.0625 22.375C46.472656 23.335938 45.609375 24.019531 45.03125 24.3125C44.753906 24.453125 44.054688 24.699219 43.40625 24.71875C43.394531 24.71875 43.386719 24.71875 43.375 24.71875C45.066406 23.214844 45.1875 20.53125 45.1875 20.53125C45.1875 20.53125 43.089844 21.550781 41.53125 22.3125C41.472656 22.34375 41.429688 22.398438 41.375 22.4375C41.386719 22.164063 41.425781 21.882813 41.5 21.59375C41.742188 20.664063 42.3125 19.804688 42.96875 19.40625C45.71875 17.738281 46.667969 17.078125 47.25 16.6875 Z M 25 20.03125C29.546875 20.03125 33.644531 21.003906 36.53125 22.53125C39.417969 24.058594 40.96875 26.039063 40.96875 28C40.96875 29.960938 39.417969 31.941406 36.53125 33.46875C33.644531 34.996094 29.546875 35.96875 25 35.96875C20.453125 35.96875 16.355469 34.996094 13.46875 33.46875C10.582031 31.941406 9.03125 29.960938 9.03125 28C9.03125 26.039063 10.582031 24.058594 13.46875 22.53125C16.355469 21.003906 20.453125 20.03125 25 20.03125 Z M 11 34.375C11.46875 34.695313 11.972656 35 12.5 35.28125C13.113281 35.605469 13.78125 35.914063 14.46875 36.1875C14.46875 36.210938 14.46875 36.226563 14.46875 36.25C14.46875 37.355469 15.242188 38.476563 16.21875 38.75C17.183594 39.023438 17.984375 38.367188 18 37.28125C19.5625 37.640625 21.25 37.863281 23 37.96875C23 37.980469 23 37.988281 23 38C23 39.105469 23.894531 40 25 40C26.105469 40 27 39.105469 27 38C27 37.988281 27 37.980469 27 37.96875C28.75 37.863281 30.4375 37.640625 32 37.28125C32.015625 38.367188 32.816406 39.023438 33.78125 38.75C34.757813 38.476563 35.53125 37.355469 35.53125 36.25C35.53125 36.226563 35.53125 36.210938 35.53125 36.1875C36.21875 35.914063 36.886719 35.605469 37.5 35.28125C38.027344 35 38.53125 34.695313 39 34.375L39 37C39 39.035156 37.617188 40.988281 35.09375 42.5C32.570313 44.011719 28.980469 45 25 45C21.019531 45 17.429688 44.011719 14.90625 42.5C12.382813 40.988281 11 39.035156 11 37Z">
                </path>
            </g>
        </svg>
    </symbol>

    <symbol id="water">
        <svg width="64px" height="64px" viewBox="0 0 1024 1024" class="icon" version="1.1"
            xmlns="http://www.w3.org/2000/svg">
            <g id="SVGRepo_bgCarrier" stroke-width="0"></g>
            <g id="SVGRepo_tracerCarrier" stroke-linecap="round" stroke-linejoin="round"></g>
            <g id="SVGRepo_iconCarrier">
                <path
                    d="M664.2 596.1c0 163.1-92.6 229.9-206.7 229.9s-206.7-66.8-206.7-229.9 206.7-426.2 206.7-426.2S664.2 433 664.2 596.1z"
                    fill="#7166f0"></path>
                <path
                    d="M457.5 836.3c-62.9 0-116-19.6-153.5-56.8-42.2-41.8-63.6-103.6-63.6-183.5 0-69.5 35.3-163.6 104.8-279.6 51.4-85.7 103.6-152.3 104.1-153 2-2.5 5-4 8.1-4 3.2 0 6.2 1.5 8.1 4 0.5 0.7 52.7 67.3 104.1 153 69.6 116 104.8 210 104.8 279.6 0 79.9-21.4 141.6-63.6 183.5-37.3 37.1-90.4 56.8-153.3 56.8z m0-649.4c-16.5 21.9-55.8 75.6-94.6 140.4-46.4 77.4-101.8 186.9-101.8 268.7 0 74.2 19.3 131 57.5 168.8 33.5 33.2 81.5 50.8 138.9 50.8s105.4-17.6 138.9-50.8c38.1-37.8 57.5-94.6 57.5-168.8 0-81.8-55.3-191.3-101.8-268.7-38.8-64.7-78.1-118.4-94.6-140.4z"
                    fill=""></path>
                <path d="M736 115m-97.1 0a97.1 97.1 0 1 0 194.2 0 97.1 97.1 0 1 0-194.2 0Z" fill="#7166f0"></path>
                <path
                    d="M736 222.4c-59.2 0-107.4-48.2-107.4-107.4S676.8 7.6 736 7.6 843.4 55.8 843.4 115 795.3 222.4 736 222.4z m0-194.2c-47.8 0-86.8 38.9-86.8 86.8 0 47.8 38.9 86.8 86.8 86.8s86.8-38.9 86.8-86.8c0-47.8-38.9-86.8-86.8-86.8z"
                    fill=""></path>
                <path d="M651.6 511.9m-84.4 0a84.4 84.4 0 1 0 168.8 0 84.4 84.4 0 1 0-168.8 0Z" fill="#7166f0"></path>
                <path
                    d="M651.6 606.7c-52.3 0-94.8-42.5-94.8-94.8s42.5-94.8 94.8-94.8 94.8 42.5 94.8 94.8-42.6 94.8-94.8 94.8z m0-168.9c-40.9 0-74.1 33.2-74.1 74.1 0 40.9 33.2 74.1 74.1 74.1 40.9 0 74.1-33.2 74.1-74.1 0-40.9-33.3-74.1-74.1-74.1z"
                    fill=""></path>
                <path d="M214.2 923.1m-84.4 0a84.4 84.4 0 1 0 168.8 0 84.4 84.4 0 1 0-168.8 0Z" fill="#7166f0"></path>
                <path
                    d="M214.2 1017.9c-52.3 0-94.8-42.5-94.8-94.8s42.5-94.8 94.8-94.8 94.8 42.5 94.8 94.8-42.5 94.8-94.8 94.8z m0-168.9c-40.9 0-74.1 33.2-74.1 74.1 0 40.9 33.2 74.1 74.1 74.1s74.1-33.2 74.1-74.1c0-40.8-33.2-74.1-74.1-74.1z"
                    fill=""></path>
                <path d="M905 621.9m-63.9 0a63.9 63.9 0 1 0 127.8 0 63.9 63.9 0 1 0-127.8 0Z" fill="#7166f0"></path>
                <path
                    d="M905 696.2c-40.9 0-74.2-33.3-74.2-74.2s33.3-74.2 74.2-74.2 74.2 33.3 74.2 74.2-33.3 74.2-74.2 74.2z m0-127.8c-29.5 0-53.6 24-53.6 53.6 0 29.5 24 53.6 53.6 53.6 29.5 0 53.6-24 53.6-53.6s-24.1-53.6-53.6-53.6z"
                    fill=""></path>
                <path d="M248.2 222.9m-63.9 0a63.9 63.9 0 1 0 127.8 0 63.9 63.9 0 1 0-127.8 0Z" fill="#7166f0"></path>
                <path
                    d="M248.2 297.1c-40.9 0-74.2-33.3-74.2-74.2s33.3-74.2 74.2-74.2 74.2 33.3 74.2 74.2-33.2 74.2-74.2 74.2z m0-127.8c-29.5 0-53.6 24-53.6 53.6s24 53.6 53.6 53.6c29.5 0 53.6-24 53.6-53.6s-24-53.6-53.6-53.6z"
                    fill=""></path>
                <path d="M706.1 929.3m-54.5 0a54.5 54.5 0 1 0 109 0 54.5 54.5 0 1 0-109 0Z" fill="#7166f0"></path>
                <path
                    d="M706.1 994.2c-35.8 0-64.9-29.1-64.9-64.9s29.1-64.9 64.9-64.9c35.8 0 64.9 29.1 64.9 64.9s-29.1 64.9-64.9 64.9z m0-109.1c-24.4 0-44.2 19.8-44.2 44.2 0 24.4 19.8 44.2 44.2 44.2 24.4 0 44.2-19.8 44.2-44.2 0-24.4-19.8-44.2-44.2-44.2z"
                    fill=""></path>
                <path d="M119.1 492.8m-65.3 0a65.3 65.3 0 1 0 130.6 0 65.3 65.3 0 1 0-130.6 0Z" fill="#7166f0"></path>
                <path
                    d="M119.1 568.4c-41.7 0-75.6-33.9-75.6-75.6s33.9-75.6 75.6-75.6c41.7 0 75.6 33.9 75.6 75.6s-33.9 75.6-75.6 75.6z m0-130.6c-30.3 0-55 24.7-55 55s24.7 55 55 55 55-24.7 55-55c-0.1-30.4-24.7-55-55-55z"
                    fill=""></path>
            </g>
        </svg>

    </symbol>

    <symbol id="electricity">
        <svg width="64px" height="64px" viewBox="0 0 24 24" fill="none" xmlns="http://www.w3.org/2000/svg">
            <g id="SVGRepo_bgCarrier" stroke-width="0"></g>
            <g id="SVGRepo_tracerCarrier" stroke-linecap="round" stroke-linejoin="round"></g>
            <g id="SVGRepo_iconCarrier">
                <path
                    d="M10.4998 16H13.4998C15.9998 16 17.4998 14.2 17.4998 12V6.91C17.4998 5.86 16.6398 5 15.5898 5H8.41982C7.36982 5 6.50982 5.86 6.50982 6.91V12C6.49982 14.2 7.99981 16 10.4998 16Z"
                    stroke="#7166f0" stroke-width="1.5" stroke-linecap="round" stroke-linejoin="round"></path>
                <path opacity="0.4" d="M9.5 2V5" stroke="#7166f0" stroke-width="1.5" stroke-linecap="round"
                    stroke-linejoin="round"></path>
                <path opacity="0.4" d="M14.5 2V5" stroke="#7166f0" stroke-width="1.5" stroke-linecap="round"
                    stroke-linejoin="round"></path>
                <path opacity="0.4" d="M12 22V16" stroke="#7166f0" stroke-width="1.5" stroke-linecap="round"
                    stroke-linejoin="round"></path>
            </g>
        </svg>
    </symbol>

    <symbol id="review">
        <svg width="40" height="29" viewBox="0 0 40 29" fill="none" xmlns="http://www.w3.org/2000/svg">
            <path
                d="M7.68979 0.133511C6.83679 0.298887 6.05343 0.577417 5.20043 0.995213C1.15304 3.02326 -0.901114 7.75827 0.378383 12.1451C1.29231 15.3221 3.71204 17.7157 6.93254 18.647L7.64627 18.8559L6.95865 19.9788C6.34937 20.9971 4.63467 23.5909 3.4161 25.3492C2.71107 26.3762 2.67625 26.9594 3.28554 27.6122C3.59888 27.9517 3.6424 27.9691 4.20817 28.0039C5.80101 28.0909 9.07374 27.0029 11.2062 25.6799C12.6859 24.7573 14.3919 23.2167 15.4103 21.8675C17.2381 19.4565 18.4393 16.2969 18.8832 12.7022C18.9441 12.1886 18.9964 10.944 18.9877 9.87335C18.9877 8.07161 18.9702 7.90623 18.7526 7.08805C18.4741 6.05227 17.7343 4.52036 17.1337 3.72829C15.7672 1.93525 13.6782 0.620937 11.4848 0.168327C10.4577 -0.0405712 8.63853 -0.0579796 7.68979 0.133511Z"
                fill="#6E00FF" />
            <path
                d="M29.006 0.0548916C26.7429 0.368238 24.3058 1.83052 22.8609 3.728C22.2603 4.52878 21.5205 6.05199 21.242 7.08777C21.0331 7.87113 21.007 8.10614 21.007 9.48138C21.007 10.8566 21.0331 11.0916 21.242 11.875C21.9035 14.3557 23.4528 16.3924 25.6897 17.7328C26.36 18.1332 27.3696 18.5423 28.1008 18.7077L28.5882 18.8208L28.3097 19.3083C27.683 20.4137 25.7071 23.434 24.3319 25.3924C23.9576 25.9233 23.8793 26.1061 23.8445 26.4891C23.801 27.0723 23.9924 27.5162 24.4277 27.8121C24.828 28.082 25.5331 28.0907 26.6994 27.8469C29.0147 27.3595 31.1994 26.3934 33.1752 25.0007C34.124 24.3218 35.9257 22.5114 36.6482 21.493C38.241 19.2473 39.4073 16.0704 39.7903 12.9195C40.2952 8.82858 39.9122 6.47849 38.3803 4.17191C36.9789 2.07423 34.7594 0.603247 32.2439 0.124523C31.5998 0.00266647 29.6849 -0.0408535 29.006 0.0548916Z"
                fill="#6E00FF" />
        </svg>

    </symbol>

    <symbol id="stars">
        <svg width="114" height="26" viewBox="0 0 114 26" fill="none" xmlns="http://www.w3.org/2000/svg">
            <path
                d="M12.0489 2.92705C12.3483 2.00574 13.6517 2.00574 13.9511 2.92705L15.6942 8.29179C15.828 8.70382 16.212 8.98278 16.6452 8.98278H22.2861C23.2548 8.98278 23.6576 10.2224 22.8738 10.7918L18.3103 14.1074C17.9598 14.362 17.8132 14.8134 17.947 15.2254L19.6902 20.5902C19.9895 21.5115 18.935 22.2776 18.1513 21.7082L13.5878 18.3926C13.2373 18.138 12.7627 18.138 12.4122 18.3926L7.84869 21.7082C7.06498 22.2776 6.0105 21.5115 6.30985 20.5902L8.05296 15.2254C8.18683 14.8134 8.04018 14.362 7.68969 14.1074L3.12616 10.7918C2.34245 10.2224 2.74523 8.98278 3.71395 8.98278H9.35477C9.788 8.98278 10.172 8.70382 10.3058 8.2918L12.0489 2.92705Z"
                fill="#FFCB2B" />
            <path
                d="M34.0489 2.92705C34.3483 2.00574 35.6517 2.00574 35.9511 2.92705L37.6942 8.29179C37.828 8.70382 38.212 8.98278 38.6452 8.98278H44.2861C45.2548 8.98278 45.6576 10.2224 44.8738 10.7918L40.3103 14.1074C39.9598 14.362 39.8132 14.8134 39.947 15.2254L41.6902 20.5902C41.9895 21.5115 40.935 22.2776 40.1513 21.7082L35.5878 18.3926C35.2373 18.138 34.7627 18.138 34.4122 18.3926L29.8487 21.7082C29.065 22.2776 28.0105 21.5115 28.3098 20.5902L30.053 15.2254C30.1868 14.8134 30.0402 14.362 29.6897 14.1074L25.1262 10.7918C24.3425 10.2224 24.7452 8.98278 25.7139 8.98278H31.3548C31.788 8.98278 32.172 8.70382 32.3058 8.2918L34.0489 2.92705Z"
                fill="#FFCB2B" />
            <path
                d="M56.0489 2.92705C56.3483 2.00574 57.6517 2.00574 57.9511 2.92705L59.6942 8.29179C59.828 8.70382 60.212 8.98278 60.6452 8.98278H66.2861C67.2548 8.98278 67.6576 10.2224 66.8738 10.7918L62.3103 14.1074C61.9598 14.362 61.8132 14.8134 61.947 15.2254L63.6902 20.5902C63.9895 21.5115 62.935 22.2776 62.1513 21.7082L57.5878 18.3926C57.2373 18.138 56.7627 18.138 56.4122 18.3926L51.8487 21.7082C51.065 22.2776 50.0105 21.5115 50.3098 20.5902L52.053 15.2254C52.1868 14.8134 52.0402 14.362 51.6897 14.1074L47.1262 10.7918C46.3425 10.2224 46.7452 8.98278 47.7139 8.98278H53.3548C53.788 8.98278 54.172 8.70382 54.3058 8.2918L56.0489 2.92705Z"
                fill="#FFCB2B" />
            <path
                d="M78.0489 2.92705C78.3483 2.00574 79.6517 2.00574 79.9511 2.92705L81.6942 8.29179C81.828 8.70382 82.212 8.98278 82.6452 8.98278H88.2861C89.2548 8.98278 89.6576 10.2224 88.8738 10.7918L84.3103 14.1074C83.9598 14.362 83.8132 14.8134 83.947 15.2254L85.6902 20.5902C85.9895 21.5115 84.935 22.2776 84.1513 21.7082L79.5878 18.3926C79.2373 18.138 78.7627 18.138 78.4122 18.3926L73.8487 21.7082C73.065 22.2776 72.0105 21.5115 72.3098 20.5902L74.053 15.2254C74.1868 14.8134 74.0402 14.362 73.6897 14.1074L69.1262 10.7918C68.3425 10.2224 68.7452 8.98278 69.7139 8.98278H75.3548C75.788 8.98278 76.172 8.70382 76.3058 8.2918L78.0489 2.92705Z"
                fill="#FFCB2B" />
            <path
                d="M100.049 2.92705C100.348 2.00574 101.652 2.00574 101.951 2.92705L103.694 8.29179C103.828 8.70382 104.212 8.98278 104.645 8.98278H110.286C111.255 8.98278 111.658 10.2224 110.874 10.7918L106.31 14.1074C105.96 14.362 105.813 14.8134 105.947 15.2254L107.69 20.5902C107.99 21.5115 106.935 22.2776 106.151 21.7082L101.588 18.3926C101.237 18.138 100.763 18.138 100.412 18.3926L95.8487 21.7082C95.065 22.2776 94.0105 21.5115 94.3098 20.5902L96.053 15.2254C96.1868 14.8134 96.0402 14.362 95.6897 14.1074L91.1262 10.7918C90.3425 10.2224 90.7452 8.98278 91.7139 8.98278H97.3548C97.788 8.98278 98.172 8.70382 98.3058 8.2918L100.049 2.92705Z"
                fill="#FFCB2B" />
        </svg>

    </symbol>

    <symbol id="mortgage">
        <svg fill="#7166f0" version="1.1" id="Layer_1" xmlns="http://www.w3.org/2000/svg"
            xmlns:xlink="http://www.w3.org/1999/xlink" viewBox="0 0 512.003 512.003" xml:space="preserve" width="64px"
            height="64px">
            <g id="SVGRepo_bgCarrier" stroke-width="0"></g>
            <g id="SVGRepo_tracerCarrier" stroke-linecap="round" stroke-linejoin="round"></g>
            <g id="SVGRepo_iconCarrier">
                <g>
                    <g>
                        <path
                            d="M499.2,486.402h-38.4v-204.8h25.6c10.351,0,19.686-6.238,23.654-15.804c3.959-9.566,1.775-20.574-5.547-27.904 l-230.4-230.4C269.107,2.502,262.554,0.002,256,0.002s-13.107,2.5-18.099,7.501L166.4,78.995V51.202c0-14.14-11.46-25.6-25.6-25.6 h-25.6c-14.14,0-25.6,11.46-25.6,25.6v104.593L7.501,237.894c-7.322,7.322-9.515,18.33-5.547,27.904 c3.959,9.566,13.295,15.804,23.646,15.804h25.6v204.8H12.8c-7.074,0-12.8,5.726-12.8,12.8c0,7.074,5.726,12.8,12.8,12.8h486.4 c7.074,0,12.8-5.726,12.8-12.8C512,492.128,506.274,486.402,499.2,486.402z M115.2,51.202h25.6v53.393l-25.6,25.6V51.202z M435.2,486.402H76.8v-230.4H25.6L256,25.602l230.4,230.4h-51.2V486.402z">
                        </path>
                    </g>
                </g>
                <g>
                    <g>
                        <rect x="111.189" y="319.998"
                            transform="matrix(0.7071 -0.7071 0.7071 0.7071 -160.3423 278.4951)" width="289.627"
                            height="25.6"></rect>
                    </g>
                </g>
                <g>
                    <g>
                        <path
                            d="M192,217.602c-28.228,0-51.2,22.963-51.2,51.2c0,28.237,22.98,51.2,51.2,51.2c28.228,0,51.2-22.963,51.2-51.2 C243.2,240.565,220.228,217.602,192,217.602z M192,294.402c-14.123,0-25.6-11.486-25.6-25.6c0-14.114,11.477-25.6,25.6-25.6 s25.6,11.486,25.6,25.6C217.6,282.916,206.123,294.402,192,294.402z">
                        </path>
                    </g>
                </g>
                <g>
                    <g>
                        <path
                            d="M320,345.602c-28.228,0-51.2,22.963-51.2,51.2c0,28.237,22.972,51.2,51.2,51.2c28.228,0,51.2-22.963,51.2-51.2 C371.2,368.565,348.228,345.602,320,345.602z M320,422.402c-14.123,0-25.6-11.486-25.6-25.6c0-14.114,11.477-25.6,25.6-25.6 c14.123,0,25.6,11.486,25.6,25.6C345.6,410.916,334.123,422.402,320,422.402z">
                        </path>
                    </g>
                </g>
            </g>
        </svg>
    </symbol>

    <symbol id="rubles">
        <svg fill="#7166f0" width="64px" height="64px" viewBox="0 0 64 64" xmlns="http://www.w3.org/2000/svg"
            stroke="#7166f0">
            <g id="SVGRepo_bgCarrier" stroke-width="0"></g>
            <g id="SVGRepo_tracerCarrier" stroke-linecap="round" stroke-linejoin="round"></g>
            <g id="SVGRepo_iconCarrier">
                <g id="Outline">
                    <g data-name="Outline" id="Outline-2">
                        <path
                            d="M34.875,35a7,7,0,0,0,0-14h-6a1,1,0,0,0-1,1V33h-2.75a1,1,0,0,0,0,2h2.75v3h-2.75a1,1,0,0,0,0,2h2.75v3a1,1,0,0,0,2,0V40h6.25a1,1,0,0,0,0-2h-6.25V35Zm5-7a5.006,5.006,0,0,1-5,5h-5V23h5A5.006,5.006,0,0,1,39.875,28Z">
                        </path>
                        <path
                            d="M32,2A30,30,0,1,0,62,32,30.034,30.034,0,0,0,32,2Zm0,58A28,28,0,1,1,60,32,28.032,28.032,0,0,1,32,60Z">
                        </path>
                        <path
                            d="M49.655,16.793a3.172,3.172,0,1,0-3.172,3.172,3.137,3.137,0,0,0,1.263-.266A19.994,19.994,0,0,1,22.692,49.707a1,1,0,0,0-.933,1.769,21.986,21.986,0,0,0,27.47-33.124A3.141,3.141,0,0,0,49.655,16.793Zm-4.344,0a1.172,1.172,0,1,1,1.172,1.172A1.172,1.172,0,0,1,45.311,16.793Z">
                        </path>
                        <path
                            d="M16.793,44.035a3.164,3.164,0,0,0-.692.081A19.779,19.779,0,0,1,12,32,20.023,20.023,0,0,1,32,12a19.811,19.811,0,0,1,8.463,1.874,1,1,0,0,0,.848-1.812A21.989,21.989,0,0,0,14.39,45.16a3.141,3.141,0,0,0-.769,2.047,3.172,3.172,0,1,0,3.172-3.172Zm0,4.344a1.172,1.172,0,1,1,1.172-1.172A1.172,1.172,0,0,1,16.793,48.379Z">
                        </path>
                    </g>
                </g>
            </g>
        </svg>
    </symbol>
</svg>